<svg xmlns="http://www.w3.org/2000/svg" viewBox="0 0 24 24" fill="currentColor"><path d="M12 2.163c3.204 0 3.584.012 4.85.07 1.366.062 2.633.334 3.608 1.308.974.974 1.246 2.241 1.308 3.608.058 1.266.07 1.646.07 4.85s-.012 3.584-.07 4.85c-.062 1.366-.334 2.633-1.308 3.608-.974.974-2.241 1.246-3.608 1.308-1.266.058-1.646.07-4.85.07s-3.584-.012-4.85-.07c-1.366-.062-2.633-.334-3.608-1.308-.974-.974-1.246-2.241-1.308-3.608C2.175 15.647 2.163 15.267 2.163 12s.012-3.584.07-4.85c.062-1.366.334-2.633 1.308-3.608.974-.974 2.241-1.246 3.608-1.308C8.416 2.175 8.796 2.163 12 2.163zm0-2.163C8.741 0 8.332.013 7.052.072 5.771.131 4.659.425 3.678 1.406c-.981.981-1.275 2.093-1.334 3.374C2.013 8.332 2 8.741 2 12c0 3.259.013 3.668.072 4.948.059 1.281.353 2.393 1.334 3.374.981.981 2.093 1.275 3.374 1.334C8.332 23.987 8.741 24 12 24s3.668-.013 4.948-.072c1.281-.059 2.393-.353 3.374-1.334.981-.981 1.275-2.093 1.334-3.374.059-1.28.072-1.689.072-4.948 0-3.259-.013-3.668-.072-4.948-.059-1.281-.353-2.393-1.334-3.374-.981-.981-2.093-1.275-3.374-1.334C15.668.013 15.259 0 12 0z"/><circle cx="12" cy="12" r="3.5"/></svg>